<svg width="27" height="25" viewBox="0 0 27 25" fill="none" xmlns="http://www.w3.org/2000/svg">
<path d="M22.932 20.0938L19.2892 16.5625C20.4645 15.1067 21.1023 13.309 21.0999 11.4583C21.0999 9.81016 20.5972 8.199 19.6553 6.82859C18.7135 5.45818 17.3748 4.39007 15.8086 3.75934C14.2424 3.12861 12.519 2.96358 10.8563 3.28513C9.19357 3.60667 7.66628 4.40034 6.46755 5.56578C5.26881 6.73122 4.45246 8.21608 4.12173 9.83259C3.791 11.4491 3.96075 13.1246 4.6095 14.6474C5.25825 16.1701 6.35687 17.4716 7.76643 18.3873C9.176 19.3029 10.8332 19.7917 12.5285 19.7917C14.432 19.794 16.2811 19.1739 17.7785 18.0313L21.4106 21.5729C21.5102 21.6706 21.6287 21.7481 21.7593 21.8009C21.8898 21.8538 22.0299 21.881 22.1713 21.881C22.3128 21.881 22.4528 21.8538 22.5834 21.8009C22.7139 21.7481 22.8324 21.6706 22.932 21.5729C23.0325 21.4761 23.1122 21.3609 23.1666 21.2339C23.221 21.107 23.249 20.9709 23.249 20.8333C23.249 20.6958 23.221 20.5597 23.1666 20.4327C23.1122 20.3058 23.0325 20.1906 22.932 20.0938ZM6.09989 11.4583C6.09989 10.2222 6.47692 9.01383 7.1833 7.98602C7.88968 6.95822 8.89369 6.15714 10.0684 5.68409C11.243 5.21104 12.5356 5.08727 13.7826 5.32843C15.0296 5.56959 16.1751 6.16484 17.0742 7.03892C17.9732 7.913 18.5855 9.02664 18.8335 10.239C19.0816 11.4514 18.9543 12.7081 18.4677 13.8501C17.9811 14.9921 17.1572 15.9683 16.1 16.655C15.0428 17.3418 13.7999 17.7083 12.5285 17.7083C10.8235 17.7083 9.18837 17.0499 7.98278 15.8778C6.77719 14.7057 6.09989 13.1159 6.09989 11.4583Z" fill="#231F20"/>
</svg>
