<svg width="842" height="546" viewBox="0 0 842 546" fill="none" xmlns="http://www.w3.org/2000/svg">
<path d="M767.993 544.385L743.944 471.802C743.944 471.802 770.396 498.258 770.396 519.965L765.648 469.767C765.648 469.767 779.213 488.082 777.857 515.895C776.5 543.707 767.993 544.385 767.993 544.385Z" fill="#E6E6E6"/>
<path d="M251.556 478.295L228.086 407.457C228.086 407.457 253.902 433.276 253.902 454.461L249.268 405.47C249.268 405.47 262.507 423.345 261.183 450.489C259.859 477.633 251.556 478.295 251.556 478.295Z" fill="#E6E6E6"/>
<path d="M617.885 510.984C617.925 557.582 525.515 543.249 412.384 543.346C299.253 543.444 208.241 557.936 208.201 511.337C208.161 464.738 300.537 454.524 413.668 454.426C526.799 454.329 617.845 464.385 617.885 510.984Z" fill="#E6E6E6"/>
<path d="M538.599 448.052H523.808L516.77 390.996H538.599V448.052Z" fill="#A0616A"/>
<path d="M511.601 443.826H541.769V461.788H495.284V460.145C495.284 455.817 497.004 451.666 500.064 448.606C503.124 445.545 507.274 443.826 511.601 443.826Z" fill="#2F2E41"/>
<path d="M647.313 532.264H632.522L625.483 475.208H647.313V532.264Z" fill="#A0616A"/>
<path d="M620.315 528.038H650.482V546H603.998V544.357C603.998 540.029 605.717 535.878 608.777 532.817C611.837 529.757 615.988 528.038 620.315 528.038Z" fill="#2F2E41"/>
<path d="M715.535 362.76C716.557 361.52 717.296 360.07 717.697 358.514C718.099 356.957 718.155 355.332 717.861 353.751C717.567 352.171 716.929 350.674 715.994 349.366C715.059 348.059 713.849 346.972 712.448 346.183L678.097 206.229L656.133 215.68L696.991 351.004C695.822 353.445 695.588 356.23 696.335 358.832C697.082 361.433 698.756 363.671 701.042 365.12C703.328 366.569 706.066 367.129 708.737 366.694C711.408 366.259 713.826 364.86 715.535 362.76Z" fill="#A0616A"/>
<path d="M688.743 79.9092C687.517 78.6274 686.025 77.63 684.372 76.9874C682.719 76.3447 680.945 76.0723 679.175 76.1894C677.406 76.3066 675.683 76.8103 674.129 77.6652C672.575 78.5202 671.228 79.7055 670.181 81.1377L617.012 87.2426L625.1 107.753L673.454 98.7024C675.977 100.301 678.997 100.919 681.945 100.439C684.892 99.9585 687.56 98.4139 689.445 96.0974C691.329 93.7808 692.299 90.8534 692.169 87.8698C692.04 84.8862 690.821 82.0538 688.743 79.9092Z" fill="#A0616A"/>
<path d="M601.124 348.246L624.325 522.399L653.202 516.453C653.202 516.453 648.955 389.621 663.394 374.332C677.832 359.042 644.823 332.256 644.823 332.256L601.124 348.246Z" fill="#2F2E41"/>
<path d="M610.716 300.277L600.058 316.267C600.058 316.267 517.99 282.157 517.99 336.52C517.99 390.884 513.294 427.778 511.595 430.326C509.896 432.874 531.246 439.487 541.438 437.788C541.438 437.788 554.011 350.145 553.162 345.048C553.162 345.048 633.667 384.525 648.955 381.127C664.243 377.729 667.855 365.701 670.403 358.906C672.95 352.11 669.337 298.145 669.337 298.145L618.38 282.592L610.716 300.277Z" fill="#2F2E41"/>
<path d="M612.154 204.275L609.116 200.629C609.116 200.629 575.092 124.062 588.458 103.401C601.825 82.7406 660.154 79.7022 661.977 80.9175C663.799 82.1329 657.623 97.9121 661.876 105.204C661.876 105.204 616.691 115.002 613.653 116.217C610.615 117.433 637.065 162.346 637.065 162.346L634.028 189.691L612.154 204.275Z" fill="#CCCCCC"/>
<path d="M671.698 166.599C671.698 166.599 640.103 170.245 638.888 170.245C637.673 170.245 637.066 162.346 637.066 162.346L609.116 200.629C609.116 200.629 595.347 311.694 598.992 309.871C602.638 308.048 669.875 318.518 670.483 313.656C671.09 308.795 669.875 284.488 671.698 283.273C673.521 282.057 703.293 206.706 703.293 206.706C703.293 206.706 700.255 190.906 689.926 185.437C679.597 179.968 671.698 166.599 671.698 166.599Z" fill="#CCCCCC"/>
<path d="M693.571 196.375L703.293 206.706C703.293 206.706 717.737 325.412 709.838 329.059C701.939 332.705 686.39 332.256 686.39 332.256L671.091 275.981L693.571 196.375Z" fill="#CCCCCC"/>
<path d="M641.337 159.082C656.782 159.082 669.303 146.559 669.303 131.112C669.303 115.665 656.782 103.142 641.337 103.142C625.892 103.142 613.371 115.665 613.371 131.112C613.371 146.559 625.892 159.082 641.337 159.082Z" fill="#A0616A"/>
<path d="M634.775 135.477C634.397 129.673 627.076 129.474 621.262 129.419C615.447 129.364 608.495 129.572 605.205 124.776C603.03 121.607 603.445 117.208 605.242 113.81C607.038 110.412 609.993 107.799 612.9 105.285C620.405 98.7943 628.139 92.3553 637.15 88.2009C646.16 84.0465 656.719 82.3679 666.063 85.7028C677.542 89.7994 693.06 110.887 694.4 123.003C695.74 135.119 690.898 147.47 682.738 156.523C674.577 165.577 655.898 161.924 644.143 165.145C651.29 155.029 646.579 136.649 635.131 131.925L634.775 135.477Z" fill="#2F2E41"/>
<path d="M385.531 497.27C422.609 497.27 452.667 467.208 452.667 430.125C452.667 393.042 422.609 362.98 385.531 362.98C348.453 362.98 318.396 393.042 318.396 430.125C318.396 467.208 348.453 497.27 385.531 497.27Z" fill="#0DD7CA"/>
<path d="M340.697 358.209C331.392 358.21 322.287 355.513 314.483 350.445C306.68 345.378 300.512 338.157 296.726 329.656L190.195 89.714C186.666 81.7659 184.799 73.18 184.71 64.484C184.621 55.788 186.311 47.1656 189.677 39.1469C193.042 31.1281 198.011 23.8824 204.279 17.8551C210.548 11.8279 217.982 7.14636 226.126 4.09837C234.269 1.05039 242.95 -0.299671 251.635 0.13118C260.32 0.562031 268.824 2.76469 276.626 6.60376C284.428 10.4428 291.363 15.8372 297.004 22.4553C302.645 29.0734 306.873 36.7754 309.428 45.0879L386.57 296.031C388.779 303.214 389.272 310.814 388.01 318.223C386.749 325.631 383.768 332.64 379.307 338.687C374.846 344.733 369.029 349.65 362.323 353.04C355.618 356.431 348.211 358.201 340.697 358.209H340.697Z" fill="#0DD7CA"/>
</svg>
